{"title":"Super Beavers Vol.10 (1960's)","uid":5271536,"size":1153528851,"categoryP":"porn","categoryS":"movies","magnet":"?xt=urn:btih:2bdc32ea5ff770accc047e4ce8239dcd9cb1da8f&amp;dn=Super+Beavers+Vol.10+%281960%5C%27s%29&amp;tr=udp%3A%2F%2Ftracker.openbittorrent.com%3A80&amp;tr=udp%3A%2F%2Fopen.demonii.com%3A1337&amp;tr=udp%3A%2F%2Ftracker.coppersurfer.tk%3A6969&amp;tr=udp%3A%2F%2Fexodus.desync.com%3A6969","seeders":0,"leechers":6,"uploader":"Beebe85","files":-1,"time":1263263336,"description":"\nComplete name                    : Super Beavers Vol.10 (1960's)\nFormat                           : Windows Media\nFile size                        : 1.07 GiB\nDuration                         : 2h 0mn\nOverall bit rate mode            : Constant\nOverall bit rate                 : 1275 Kbps\nMaximum Overall bit rate         : 1310 Kbps\nEncoded date                     : UTC 2009-09-18 17:09:35.497\n\nVideo\nID                               : 2\nFormat                           : VC-1\nFormat profile                   : MP@ML\nCodec ID                         : WMV3\nCodec ID/Info                    : Windows Media Video 9\nCodec ID/Hint                    : WMV3\nDescription of the codec         : Windows Media Video 9 - Professional\nDuration                         : 2h 0mn\nBit rate mode                    : Constant\nBit rate                         : 1200 Kbps\nWidth                            : 640 pixels\nHeight                           : 480 pixels\nDisplay aspect ratio             : 4:3\nFrame rate                       : 29.970 fps\nResolution                       : 24 bits\nScan type                        : Progressive\nBits/(Pixel*Frame)               : 0.130\nStream size                      : 1.01 GiB (94%)\nLanguage                         : English (US)\n\nAudio\nID                               : 1\nFormat                           : WMA\nFormat version                   : Version 2\nCodec ID                         : 161\nCodec ID/Info                    : Windows Media Audio\nDescription of the codec         : Windows Media Audio 9.2 -  96 kbps, 44 kHz, stereo (A/V) 1-pass CBR\nDuration                         : 2h 0mn\nBit rate mode                    : Constant\nBit rate                         : 96.0 Kbps\nChannel(s)                       : 2 channels\nSampling rate                    : 44.1 KHz\nResolution                       : 16 bits\nStream size                      : 82.9 MiB (8%)\nLanguage                         : English (US)\n\n","torrent":{"xt":"urn:btih:2bdc32ea5ff770accc047e4ce8239dcd9cb1da8f","amp;dn":"Super+Beavers+Vol.10+%281960%5C%27s%29","amp;tr":["udp%3A%2F%2Ftracker.openbittorrent.com%3A80","udp%3A%2F%2Fopen.demonii.com%3A1337","udp%3A%2F%2Ftracker.coppersurfer.tk%3A6969","udp%3A%2F%2Fexodus.desync.com%3A6969"],"infoHash":"2bdc32ea5ff770accc047e4ce8239dcd9cb1da8f","infoHashBuffer":{"type":"Buffer","data":[43,220,50,234,95,247,112,172,204,4,126,76,232,35,157,205,156,177,218,143]},"announce":[],"urlList":[]}}